<svg width="102" height="64" viewBox="0 0 102 64" fill="none" xmlns="http://www.w3.org/2000/svg">
<path d="M98.4143 15.0001C96.2012 10.3786 92.6296 6.51135 88.1583 3.89508C83.7088 1.29579 78.4493 -0.00257484 72.3798 3.8335e-06C66.3104 0.0025825 61.0377 1.30094 56.5619 3.89508C55.3637 4.58967 54.2253 5.37877 53.1577 6.25457V6.01862C53.1577 4.30896 52.641 2.92421 51.6193 1.90306C50.5976 0.881908 49.2131 0.355859 47.4656 0.355859C45.7182 0.355859 44.3375 0.874172 43.3159 1.90306C42.2942 2.93195 41.7814 4.30896 41.7814 6.01862V38.5949C41.7814 43.9018 40.4863 47.9439 37.896 50.7211C35.3057 53.4984 31.5451 54.8857 26.6144 54.8831C21.6178 54.8831 17.8271 53.51 15.242 50.7637C12.657 48.0174 11.3618 43.9612 11.3566 38.5949V6.01862C11.3566 4.30896 10.8451 2.93711 9.8221 1.90306C8.79913 0.869015 7.41589 0.353281 5.67236 0.355859C3.9249 0.355859 2.54428 0.874172 1.51868 1.90306C0.493078 2.93195 0 4.30896 0 6.01862V37.9761C0 46.4702 2.25764 52.9311 6.77291 57.3586C11.2882 61.7862 17.9073 64 26.6301 64C35.3083 64 41.8984 61.772 46.4006 57.3161C47.5073 56.2226 48.4803 55.0062 49.2999 53.6918C51.2949 56.2732 53.7811 58.451 56.6211 60.1049C61.068 62.6991 66.3275 63.9974 72.3996 64C78.4059 64 83.6338 62.7016 88.0834 60.1049C92.5668 57.4704 96.1494 53.5871 98.3749 48.9496C100.794 44.1094 102.003 38.4454 102 31.9575C101.997 25.4695 100.802 19.8171 98.4143 15.0001ZM85.7915 48.9496C82.5806 52.9079 78.1193 54.8857 72.4075 54.8831C66.622 54.8831 62.1291 52.9053 58.9287 48.9496C55.7283 44.9939 54.1228 39.3299 54.1123 31.9575C54.1123 24.5825 55.7178 18.93 58.9287 15.0001C62.1396 11.0702 66.6325 9.10915 72.4075 9.11689C78.1193 9.11689 82.5806 11.078 85.7915 15.0001C89.0025 18.9223 90.6079 24.5747 90.6079 31.9575C90.6001 39.335 88.9906 44.9991 85.7797 48.9496H85.7915Z" fill="#5340C7"/>
</svg>
