<svg width="64" height="64" viewBox="0 0 64 64" fill="none" xmlns="http://www.w3.org/2000/svg">
<g clip-path="url(#clip0)">
<path d="M64 12.8706C59.9741 13.0562 60.062 13.041 59.6069 13.0791L61.9912 6.27003C61.9912 6.27003 54.5488 9.00783 52.6621 9.49757C47.707 5.04396 40.3418 4.84718 35.0762 8.08351C30.7642 10.7344 28.4497 15.2866 29.2217 20.6074C20.8296 19.4429 13.7588 15.4649 8.17627 8.7588L6.41064 6.6382L5.09131 9.06105C3.42383 12.1226 2.87012 15.6231 3.53174 18.9175C3.80322 20.2691 4.26465 21.5581 4.90381 22.7652L3.38916 22.1782L3.20947 24.709C3.02734 27.2798 3.8833 30.2808 5.49951 32.7359C5.95459 33.4273 6.54053 34.1865 7.2832 34.9356L6.50049 34.8154L7.45557 37.7153C8.71094 41.5254 11.3184 44.4732 14.7021 46.1118C11.3228 47.5459 8.59277 48.4609 4.10547 49.937L0 51.2866L3.79199 53.3599C5.23779 54.1504 10.3467 56.7905 15.3945 57.5825C26.6152 59.3423 39.2485 57.9092 47.7534 50.2495C54.917 43.7979 57.2676 34.6206 56.7793 25.0703C56.7056 23.6245 57.1016 22.2446 57.8945 21.1856C59.4829 19.065 63.9902 12.8848 64 12.8706ZM54.896 18.9395C53.5791 20.6978 52.9194 22.9434 53.0376 25.2617C53.5303 34.895 50.9092 42.3657 45.2466 47.4653C38.6318 53.4229 27.9624 55.7612 15.9751 53.8809C13.8042 53.5405 11.5605 52.7783 9.70361 52.0171C13.4658 50.7227 16.3711 49.5689 21.063 47.3482L27.6128 44.2481L20.3813 43.7852C16.9175 43.5635 14.0332 41.8848 12.2603 39.1592C13.2017 39.1045 14.1094 38.9522 15.0132 38.7002L21.9102 36.7793L14.9556 35.0762C11.5762 34.2485 9.6499 32.2266 8.62891 30.6758C7.9585 29.6568 7.52051 28.6128 7.25781 27.6504C7.95508 27.8374 8.76807 27.9707 10.0791 28.1006L16.5161 28.7373L11.416 24.7588C7.74121 21.8926 6.26855 17.5864 7.34814 13.4468C18.8169 25.3423 32.2827 24.4483 33.6382 24.7627C33.3398 21.8648 33.332 21.8579 33.2539 21.582C31.5181 15.4458 35.3223 12.3301 37.0381 11.2754C40.6221 9.07277 46.311 8.74074 50.2515 12.3696C51.1025 13.1528 52.2534 13.461 53.3306 13.1934C54.2974 12.9531 55.0908 12.6987 55.8677 12.4219L54.2505 17.0401L56.3149 17.0415C55.9253 17.564 55.458 18.1895 54.896 18.9395Z" fill="white"/>
</g>
<defs>
<clipPath id="clip0">
<rect width="64" height="64" fill="white"/>
</clipPath>
</defs>
</svg>
